<svg width="550" height="283" viewBox="0 0 550 283" fill="none" xmlns="http://www.w3.org/2000/svg">
<path d="M70.362 252.894C70.362 249.115 69.2413 245.42 67.1415 242.277C65.0417 239.135 62.0572 236.686 58.5654 235.239C55.0737 233.793 51.2314 233.414 47.5245 234.152C43.8176 234.889 40.4127 236.709 37.7402 239.382C35.0677 242.054 33.2477 245.459 32.5103 249.166C31.773 252.873 32.1514 256.715 33.5978 260.207C35.0441 263.699 37.4934 266.683 40.636 268.783C43.7785 270.883 47.4731 272.003 51.2526 272.003C53.7621 272.003 56.247 271.509 58.5654 270.549C60.8839 269.589 62.9905 268.181 64.765 266.406C66.5395 264.632 67.9471 262.525 68.9074 260.207C69.8677 257.888 70.362 255.404 70.362 252.894Z" fill="#A6A6A6"/>
<path d="M184.994 252.894C184.994 249.115 183.873 245.42 181.773 242.277C179.673 239.135 176.689 236.686 173.197 235.239C169.705 233.793 165.863 233.414 162.156 234.152C158.449 234.889 155.044 236.709 152.372 239.382C149.699 242.054 147.879 245.459 147.142 249.166C146.405 252.873 146.783 256.715 148.229 260.207C149.676 263.699 152.125 266.683 155.268 268.783C158.41 270.883 162.105 272.003 165.884 272.003C170.95 271.997 175.807 269.981 179.389 266.399C182.972 262.817 184.987 257.96 184.994 252.894Z" fill="#A6A6A6"/>
<path d="M29.1534 265.326C29.8954 263.658 30.253 261.844 30.1998 260.019V259.895C30.2471 258.396 29.9036 256.91 29.2032 255.584C28.58 254.425 27.7332 253.4 26.7118 252.57C25.6429 251.727 24.4707 251.023 23.2237 250.477C21.978 249.929 20.7323 249.431 19.4118 249.007L16.6214 248.035C15.8279 247.755 15.0539 247.422 14.3043 247.039C13.6844 246.767 13.1124 246.397 12.6102 245.943C12.4229 245.777 12.2728 245.574 12.1697 245.346C12.0667 245.119 12.013 244.872 12.0122 244.622V244.473C12.012 244.116 12.0979 243.764 12.2627 243.447C12.4276 243.131 12.6664 242.858 12.959 242.654C13.7971 242.121 14.783 241.868 15.7743 241.931C17.3131 241.982 18.8311 242.302 20.2589 242.878C22.0839 243.546 23.8437 244.38 25.5159 245.37L29.4025 238.169C27.4041 236.825 25.2224 235.776 22.9248 235.055C20.6716 234.322 18.3181 233.943 15.9487 233.934C14.2597 233.932 12.5801 234.184 10.9658 234.681C9.43467 235.135 8.0168 235.908 6.80508 236.948C5.56688 237.937 4.5629 239.188 3.86517 240.611C3.14797 242.173 2.79038 243.875 2.81876 245.594V245.718C2.76275 247.279 3.09671 248.829 3.79043 250.228C4.406 251.421 5.25294 252.48 6.28188 253.342C7.32073 254.209 8.48937 254.907 9.74499 255.41C10.9549 255.924 12.1946 256.365 13.4573 256.731L16.2726 257.627C17.1197 257.877 17.9419 258.151 18.764 258.475C19.38 258.715 19.9398 259.08 20.4084 259.546C20.7427 259.915 20.9291 260.394 20.9316 260.891C20.941 261.285 20.8498 261.675 20.6667 262.023C20.4836 262.372 20.2147 262.669 19.8852 262.884C18.909 263.463 17.7773 263.724 16.6463 263.632C14.7675 263.605 12.9097 263.234 11.1651 262.536C9.05512 261.732 7.07415 260.624 5.2853 259.247L1 266.323C3.27435 268.163 5.85506 269.588 8.62384 270.533C11.1415 271.402 13.7836 271.857 16.447 271.879C18.2737 271.887 20.0929 271.644 21.8534 271.156C23.444 270.73 24.9344 269.994 26.2384 268.989C27.5059 268.036 28.5092 266.775 29.1534 265.326ZM105.99 243.725H114.286V235.229H106.015V225.264H95.7997V235.229H83.5667V233.784C83.5667 231.143 84.8124 229.823 87.254 229.823C88.0896 229.822 88.9235 229.897 89.7455 230.047C90.4987 230.222 91.2395 230.447 91.9629 230.72V222.074C90.9511 221.726 89.9082 221.476 88.8486 221.327C87.4539 221.127 86.0469 221.027 84.638 221.028C83.1409 220.921 81.6378 221.12 80.2201 221.613C78.8023 222.105 77.4996 222.881 76.3913 223.893C74.2969 226.383 73.2596 229.593 73.5012 232.838V271.181H83.7162V243.775H95.9492V259.446C95.6866 262.669 96.6872 265.867 98.7396 268.366C99.8517 269.38 101.159 270.157 102.581 270.649C104.003 271.142 105.51 271.34 107.011 271.231C108.39 271.231 109.766 271.106 111.122 270.857C112.19 270.708 113.241 270.458 114.261 270.11V261.539C113.489 261.813 112.742 262.012 112.044 262.187C111.225 262.361 110.389 262.436 109.553 262.411C107.061 262.411 105.84 261.091 105.84 258.45V248.733L105.99 243.725ZM143.013 245.943C143.88 243.158 145.238 240.55 147.024 238.244C144.238 235.905 140.841 234.411 137.235 233.936C133.628 233.46 129.961 234.025 126.664 235.562C123.367 237.099 120.577 239.545 118.623 242.613C116.668 245.681 115.63 249.244 115.63 252.881C115.63 256.519 116.668 260.081 118.623 263.149C120.577 266.217 123.367 268.664 126.664 270.201C129.961 271.738 133.628 272.302 137.235 271.827C140.841 271.352 144.238 269.857 147.024 267.519C145.236 265.223 143.877 262.623 143.013 259.845C141.995 260.867 140.782 261.676 139.448 262.223C138.113 262.771 136.682 263.047 135.239 263.034C133.875 263.067 132.517 262.831 131.244 262.339C129.971 261.848 128.807 261.11 127.819 260.168C126.831 259.226 126.038 258.099 125.486 256.851C124.934 255.603 124.633 254.258 124.601 252.894C124.673 250.14 125.832 247.527 127.826 245.627C129.82 243.726 132.486 242.693 135.239 242.754C136.681 242.748 138.11 243.027 139.444 243.574C140.778 244.121 141.99 244.926 143.013 245.943ZM243.044 271.181V247.288C243.295 243.676 242.143 240.107 239.83 237.322C238.665 236.152 237.267 235.241 235.725 234.648C234.184 234.056 232.535 233.796 230.886 233.884C228.605 233.839 226.347 234.352 224.309 235.379C222.288 236.474 220.508 237.965 219.077 239.764C218.199 237.954 216.814 236.44 215.09 235.404C213.21 234.361 211.086 233.836 208.936 233.884C207.747 233.875 206.563 234.043 205.424 234.382C204.411 234.675 203.447 235.111 202.558 235.678C201.731 236.238 200.956 236.872 200.241 237.571C199.569 238.294 198.921 239.041 198.323 239.814V234.482H188.133V271.181H198.323V250.751C198.181 248.761 198.765 246.787 199.967 245.195C200.538 244.566 201.24 244.07 202.023 243.743C202.807 243.415 203.653 243.265 204.502 243.302C205.337 243.251 206.173 243.395 206.943 243.724C207.713 244.053 208.395 244.556 208.936 245.195C210.07 246.817 210.615 248.777 210.481 250.751V271.181H220.696V250.751C220.554 248.761 221.138 246.787 222.34 245.195C222.911 244.566 223.613 244.07 224.396 243.743C225.18 243.415 226.026 243.265 226.875 243.302C227.707 243.251 228.539 243.395 229.305 243.724C230.071 244.053 230.749 244.557 231.285 245.195C232.43 246.811 232.976 248.776 232.83 250.751V271.181H243.044Z" fill="#A6A6A6"/>
<path fill-rule="evenodd" clip-rule="evenodd" d="M9.24927 2.61746e-06C11.4351 -0.00173807 13.5321 0.864794 15.0791 2.40902C16.6261 3.95324 17.4964 6.04869 17.4985 8.23451C17.4969 10.1162 16.8515 11.9406 15.6694 13.4046C14.4873 14.8686 12.8399 15.884 11.0008 16.2821V19.9344H15.975V23.4309H11.0008V27.7277C12.7504 28.1234 14.3137 29.1019 15.4341 30.5027C16.5546 31.9036 17.1657 33.6436 17.1673 35.4374C17.1664 36.4763 16.9609 37.5048 16.5625 38.4642C16.1641 39.4237 15.5806 40.2952 14.8453 41.0291C14.11 41.763 13.2374 42.3449 12.2772 42.7415C11.317 43.1381 10.2881 43.3417 9.24927 43.3406C8.2104 43.3417 7.1815 43.1381 6.22132 42.7415C5.26114 42.3449 4.3885 41.763 3.65322 41.0291C2.91795 40.2952 2.33445 39.4237 1.93605 38.4642C1.53764 37.5048 1.33214 36.4763 1.33128 35.4374C1.33284 33.6436 1.94396 31.9036 3.06441 30.5027C4.18485 29.1019 5.74809 28.1234 7.49773 27.7277V23.4309H2.52357V19.9344H7.49773V16.2821C5.65867 15.884 4.0112 14.8686 2.82914 13.4046C1.64707 11.9406 1.0016 10.1162 1 8.23451C1.00217 6.04869 1.87246 3.95324 3.41945 2.40902C4.96644 0.864794 7.06345 -0.00173807 9.24927 2.61746e-06ZM28.9458 27.5342C27.9069 27.5331 26.8779 27.7367 25.9176 28.1333C24.9574 28.5299 24.0846 29.1117 23.3492 29.8456C22.6138 30.5795 22.0301 31.451 21.6316 32.4105C21.233 33.3699 21.0273 34.3985 21.0262 35.4374C21.0273 36.4764 21.233 37.5049 21.6316 38.4644C22.0301 39.4238 22.6138 40.2954 23.3492 41.0292C24.0846 41.7631 24.9574 42.345 25.9176 42.7416C26.8779 43.1381 27.9069 43.3417 28.9458 43.3406C29.9847 43.3417 31.0136 43.1381 31.9738 42.7415C32.934 42.3449 33.8066 41.763 34.5419 41.0291C35.2771 40.2952 35.8606 39.4237 36.2591 38.4642C36.6575 37.5048 36.863 36.4763 36.8638 35.4374C36.8616 33.3395 36.0263 31.3283 34.5414 29.8462C33.0565 28.3641 31.0438 27.5324 28.9458 27.5342ZM9.24927 47.193C10.2881 47.192 11.317 47.3955 12.2772 47.7921C13.2374 48.1888 14.11 48.7706 14.8453 49.5045C15.5806 50.2384 16.1641 51.11 16.5625 52.0694C16.9609 53.0289 17.1664 54.0574 17.1673 55.0963C17.1664 56.1351 16.9609 57.1636 16.5625 58.1231C16.1641 59.0825 15.5806 59.9541 14.8453 60.688C14.11 61.4219 13.2374 62.0038 12.2772 62.4004C11.317 62.797 10.2881 63.0006 9.24927 62.9995C8.2104 63.0006 7.1815 62.797 6.22132 62.4004C5.26114 62.0038 4.3885 61.4219 3.65322 60.688C2.91795 59.9541 2.33445 59.0825 1.93605 58.1231C1.53764 57.1636 1.33214 56.1351 1.33128 55.0963C1.33214 54.0574 1.53764 53.0289 1.93605 52.0694C2.33445 51.11 2.91795 50.2384 3.65322 49.5045C4.3885 48.7706 5.26114 48.1888 6.22132 47.7921C7.1815 47.3955 8.2104 47.192 9.24927 47.193ZM28.9458 47.193C27.9069 47.192 26.8779 47.3955 25.9176 47.7921C24.9574 48.1887 24.0846 48.7705 23.3492 49.5044C22.6138 50.2383 22.0301 51.1099 21.6316 52.0693C21.233 53.0288 21.0273 54.0573 21.0262 55.0963C21.0273 56.1352 21.233 57.1638 21.6316 58.1232C22.0301 59.0826 22.6138 59.9542 23.3492 60.6881C24.0846 61.422 24.9574 62.0038 25.9176 62.4004C26.8779 62.797 27.9069 63.0006 28.9458 62.9995C29.9847 63.0006 31.0136 62.797 31.9738 62.4004C32.934 62.0038 33.8066 61.4219 34.5419 60.688C35.2771 59.9541 35.8606 59.0825 36.2591 58.1231C36.6575 57.1636 36.863 56.1351 36.8638 55.0963C36.8616 52.9983 36.0263 50.9871 34.5414 49.505C33.0565 48.0229 31.0438 47.1913 28.9458 47.193ZM9.24927 3.57851C9.86127 3.57787 10.4674 3.6978 11.033 3.93145C11.5987 4.16511 12.1128 4.50791 12.5459 4.94028C12.979 5.37265 13.3227 5.88612 13.5574 6.45135C13.792 7.01658 13.913 7.62251 13.9135 8.23451C13.913 8.84651 13.792 9.45244 13.5574 10.0177C13.3227 10.5829 12.979 11.0964 12.5459 11.5287C12.1128 11.9611 11.5987 12.3039 11.033 12.5376C10.4674 12.7712 9.86127 12.8912 9.24927 12.8905C8.63726 12.8912 8.03113 12.7712 7.46549 12.5376C6.89984 12.3039 6.38577 11.9611 5.95264 11.5287C5.51951 11.0964 5.1758 10.5829 4.94115 10.0177C4.7065 9.45244 4.5855 8.84651 4.58507 8.23451C4.5855 7.62251 4.7065 7.01658 4.94115 6.45135C5.1758 5.88612 5.51951 5.37265 5.95264 4.94028C6.38577 4.50791 6.89984 4.16511 7.46549 3.93145C8.03113 3.6978 8.63726 3.57787 9.24927 3.57851ZM67.7141 62.6108H66.3644C65.9018 62.6132 65.4434 62.5226 65.0166 62.3442C64.5897 62.1659 64.2031 61.9035 63.8798 61.5727C63.563 61.2487 63.3089 60.8689 63.1303 60.4525C62.945 60.0187 62.8507 59.5515 62.8531 59.0798V52.4345H53.3328V59.0798C53.3328 59.5702 53.2393 60.0278 53.0557 60.4525C52.877 60.8701 52.6211 61.2501 52.3013 61.5727C51.9796 61.8924 51.6015 62.1499 51.1861 62.332C50.7646 62.5157 50.3086 62.6108 49.8216 62.6108H48.4735V38.8782H49.8216C50.3086 38.8782 50.7646 38.9749 51.1861 39.1586C51.6075 39.3423 51.9782 39.5932 52.3013 39.9114C52.6227 40.2345 52.872 40.6035 53.0557 41.0266C53.2393 41.4513 53.3328 41.9089 53.3328 42.3944V48.4526H62.8531V42.3944C62.8512 41.9243 62.9455 41.4588 63.1303 41.0266C63.3139 40.6035 63.5632 40.2345 63.8798 39.9114C64.1914 39.5932 64.5636 39.3423 64.99 39.1586C65.4165 38.9749 65.8773 38.8782 66.3644 38.8782H67.7141V62.6108ZM86.4398 59.1914C86.3577 59.3104 86.2684 59.4243 86.1725 59.5325C86.0537 59.6687 85.9318 59.8021 85.8067 59.9327C85.6788 60.0737 85.546 60.2016 85.4181 60.3295L85.0753 60.6477C84.8554 60.8345 84.6272 61.0112 84.3914 61.1774C84.144 61.3515 83.8848 61.5083 83.6157 61.6465C83.3249 61.8003 83.0241 61.9346 82.7153 62.0483C82.391 62.1636 82.0616 62.2637 81.728 62.3484C81.3667 62.4386 80.9995 62.5038 80.6292 62.5436C80.2335 62.5897 79.8353 62.6121 79.4369 62.6108C78.1003 62.6108 76.9244 62.3943 75.8912 61.9581C75.3786 61.7511 74.888 61.4934 74.4267 61.1889C73.0946 60.3206 72.085 59.0384 71.5534 57.5399C71.1556 56.5021 70.9559 55.399 70.9646 54.2877V53.6678C70.9646 53.0102 71.0154 52.3902 71.104 51.8047C71.1975 51.2143 71.3418 50.6453 71.537 50.1041C71.9142 48.9987 72.4406 48.0622 73.1114 47.2865C73.8098 46.5025 74.669 45.8782 75.6305 45.4563C76.5964 45.0217 77.7001 44.8035 78.9482 44.8035C80.1913 44.8035 81.2737 45.0053 82.1839 45.412C82.6595 45.6301 83.0942 45.8745 83.4828 46.1533C84.2687 46.7373 84.9179 47.4856 85.3852 48.346C85.6231 48.7871 85.8231 49.2726 85.9839 49.7974C86.1889 50.4829 86.3283 51.2357 86.3889 52.0557V52.8872C86.373 53.2075 86.2915 53.5212 86.1495 53.8088C86.0121 54.0866 85.8241 54.3363 85.5952 54.5452C85.3645 54.7524 85.0999 54.9183 84.8129 55.0356C84.5184 55.1544 84.2038 55.2151 83.8863 55.2143H75.5813C75.6255 55.4981 75.6862 55.7605 75.7649 56.0114C75.8355 56.2623 75.9306 56.4968 76.0355 56.7149C76.2635 57.1774 76.5571 57.5678 76.9179 57.8859C77.2393 58.1975 77.6509 58.4501 78.1495 58.6338C78.594 58.806 79.127 58.8962 79.742 58.8962C80.58 58.8962 81.3459 58.7453 82.0511 58.4386C82.5497 58.232 82.9941 58.0876 83.3762 58.0138C83.7185 57.939 84.0702 57.9163 84.4193 57.9466C84.7243 57.981 85.008 58.0598 85.2508 58.1877C85.5017 58.3107 85.7346 58.478 85.9511 58.6846L86.4398 59.1914ZM76.0027 50.6387C75.8228 51.1087 75.7037 51.5997 75.6485 52.0999H81.9888V51.7211C81.9792 51.2882 81.912 50.8586 81.7887 50.4435C81.6636 50.072 81.4718 49.7263 81.2229 49.4234C80.9639 49.1336 80.6411 48.9079 80.2799 48.7642C80.081 48.672 79.8701 48.6085 79.6534 48.5756C79.4149 48.5368 79.1735 48.5182 78.9318 48.5198C78.4776 48.5068 78.0263 48.5965 77.6116 48.7822C77.2471 48.9559 76.9222 49.2026 76.6571 49.5071C76.3744 49.843 76.1529 50.2261 76.0027 50.6387ZM98.2233 49.6235L98.1413 49.6071C97.9904 49.5956 97.8461 49.5907 97.7132 49.5842C97.5738 49.5793 97.4361 49.5743 97.2967 49.5743C96.8853 49.5695 96.4746 49.6085 96.0716 49.6908C95.7278 49.7568 95.3985 49.8834 95.0991 50.0647C94.8354 50.2132 94.5932 50.3969 94.3791 50.6108C94.1675 50.824 93.9904 51.0749 93.8526 51.3537V60.4083C93.8563 60.7152 93.7987 61.0198 93.6832 61.3042C93.5678 61.5886 93.3968 61.8471 93.1802 62.0647C92.971 62.2775 92.7226 62.4479 92.4488 62.5665C92.1693 62.6841 91.8693 62.7451 91.5661 62.7461C91.2629 62.7471 90.9625 62.688 90.6822 62.5723C90.402 62.4566 90.1474 62.2865 89.9333 62.0718C89.7191 61.8572 89.5496 61.6023 89.4344 61.3217C89.317 61.0315 89.2568 60.7213 89.2573 60.4083V44.9216V44.938H90.2167C90.9941 44.9495 91.6944 45.1545 92.3143 45.5514C92.9408 45.9483 93.4131 46.4714 93.7395 47.1241C94.0626 46.4714 94.5349 45.9483 95.1614 45.5514C95.7903 45.1527 96.5192 44.9401 97.2639 44.938H98.2233V49.6235ZM110.053 55.8441L114.281 41.7236C114.423 41.2156 114.663 40.7399 114.986 40.323C115.306 39.9163 115.678 39.5768 116.111 39.3144C116.993 38.7622 118.048 38.5554 119.073 38.7338L120.455 38.9634L113.01 60.4345C112.801 61.0651 112.396 61.6126 111.855 61.9974C111.317 62.3828 110.707 62.578 110.035 62.578C109.354 62.578 108.742 62.3828 108.199 61.9909C107.666 61.6044 107.268 61.0599 107.061 60.4345L99.6993 39.0405L100.952 38.7962C101.492 38.701 102.023 38.701 102.546 38.806C103.061 38.9077 103.543 39.0963 103.983 39.3587C104.421 39.6276 104.805 39.9671 105.131 40.3804C105.452 40.7986 105.697 41.2726 105.859 41.8023L110.053 55.8441ZM136.562 59.1914C136.48 59.3104 136.392 59.4244 136.296 59.5325C136.176 59.6683 136.054 59.8017 135.929 59.9327C135.801 60.0737 135.668 60.2016 135.54 60.3295L135.197 60.6477C134.978 60.8349 134.75 61.0116 134.514 61.1774C134.266 61.3519 134.007 61.5086 133.738 61.6465C133.447 61.8 133.147 61.9343 132.839 62.0483C132.527 62.1598 132.195 62.2598 131.852 62.3484C131.49 62.4385 131.123 62.5037 130.753 62.5436C130.357 62.5896 129.958 62.6121 129.559 62.6108C128.222 62.6108 127.047 62.3943 126.015 61.9581C125.502 61.7514 125.011 61.4937 124.549 61.1889C123.219 60.3183 122.21 59.0369 121.675 57.5399C121.278 56.5021 121.079 55.3989 121.088 54.2877V53.6678C121.088 53.0102 121.138 52.3902 121.226 51.8047C121.317 51.2256 121.462 50.6563 121.659 50.1041C122.036 48.9987 122.563 48.0622 123.235 47.2865C123.934 46.5025 124.793 45.8782 125.754 45.4563C126.719 45.0217 127.824 44.8035 129.072 44.8035C130.315 44.8035 131.396 45.0053 132.306 45.412C132.783 45.6301 133.216 45.8745 133.605 46.1533C133.994 46.4337 134.348 46.7568 134.664 47.1307C134.986 47.4981 135.27 47.9064 135.507 48.346C135.747 48.7871 135.945 49.2726 136.106 49.7974C136.313 50.4829 136.45 51.2357 136.511 52.0557V52.8872C136.496 53.2074 136.415 53.5211 136.273 53.8088C135.995 54.3691 135.519 54.8062 134.937 55.0356C134.642 55.1544 134.326 55.2151 134.008 55.2143H125.703C125.785 55.7332 125.939 56.2383 126.159 56.7149C126.386 57.1774 126.681 57.5678 127.042 57.8859C127.361 58.1975 127.773 58.4501 128.273 58.6338C128.716 58.806 129.249 58.8962 129.866 58.8962C130.702 58.8962 131.468 58.7453 132.173 58.4386C132.672 58.232 133.116 58.0876 133.498 58.0138C133.882 57.9368 134.231 57.9138 134.541 57.9466C134.848 57.981 135.13 58.0598 135.374 58.1877C135.624 58.3107 135.857 58.478 136.073 58.6846L136.562 59.1914ZM126.125 50.6387C125.948 51.1097 125.829 51.6003 125.771 52.0999H132.111V51.7211C132.101 51.2884 132.034 50.8588 131.912 50.4435C131.786 50.0722 131.594 49.7267 131.345 49.4234C131.087 49.1337 130.764 48.908 130.404 48.7642C130.204 48.6722 129.993 48.6087 129.775 48.5756C129.537 48.5367 129.296 48.5181 129.054 48.5198C128.532 48.5198 128.096 48.6084 127.734 48.7822C127.369 48.9559 127.044 49.2026 126.779 49.5071C126.497 49.8435 126.276 50.2264 126.125 50.6387ZM153.09 55.4193C153.428 56.0278 153.593 56.7641 153.593 57.6284C153.593 58.3992 153.421 59.1077 153.072 59.7375C152.75 60.3673 152.268 60.9265 151.63 61.4054C151.306 61.6521 150.956 61.8632 150.587 62.0351C150.21 62.2139 149.798 62.3763 149.356 62.5206C148.473 62.783 147.486 62.9109 146.376 62.9109C145.133 62.9109 144.057 62.7387 143.158 62.3878C142.722 62.2311 142.3 62.0408 141.894 61.8187C141.507 61.6089 141.15 61.348 140.832 61.0429C140.479 60.698 140.163 60.3165 139.889 59.9048C139.662 59.5513 139.467 59.1781 139.307 58.7896C139.18 58.4756 139.082 58.1506 139.014 57.8187C138.965 57.5761 138.939 57.3297 138.935 57.0823L138.953 54.9897H139.88C140.406 54.9897 140.905 55.0897 141.37 55.2914C141.838 55.4915 142.248 55.7719 142.609 56.1163C142.986 56.5296 143.253 57.038 143.402 57.6399C143.425 57.7465 143.453 57.858 143.484 57.963C143.624 58.3979 143.906 58.7732 144.285 59.029C144.562 59.2127 144.895 59.3636 145.272 59.4866C145.643 59.5817 146.038 59.6309 146.459 59.6309C147.347 59.6309 148.012 59.4587 148.455 59.1077C148.667 58.9632 148.839 58.7682 148.957 58.5402C149.074 58.3123 149.133 58.0586 149.128 57.8023C149.128 57.5513 149.078 57.3267 148.978 57.1315C148.867 56.8952 148.684 56.7001 148.455 56.5739C148.305 56.4703 148.146 56.3808 147.98 56.3066C147.779 56.2146 147.576 56.1293 147.37 56.0507C147.11 55.9657 146.847 55.8929 146.581 55.8326C146.259 55.7554 145.937 55.6755 145.616 55.5932C144.78 55.4156 143.958 55.1749 143.158 54.8732C142.464 54.6099 141.809 54.2529 141.211 53.8121C140.953 53.5984 140.714 53.3636 140.495 53.1102C140.282 52.8628 140.096 52.5934 139.94 52.3066C139.64 51.7654 139.486 51.1127 139.486 50.3484C139.486 49.6514 139.64 48.9642 139.94 48.2902C140.278 47.626 140.728 47.0569 141.288 46.5895C141.936 46.0607 142.675 45.656 143.47 45.3956C144.4 45.1013 145.372 44.9579 146.348 44.9708C147.497 44.9708 148.495 45.1053 149.356 45.3775C149.798 45.5284 150.204 45.7023 150.581 45.8909C150.953 46.0811 151.297 46.3041 151.614 46.5551C152.229 47.0356 152.708 47.6145 153.044 48.3017C153.356 48.9429 153.528 49.6465 153.544 50.4091V52.6297H152.573C152.008 52.6381 151.448 52.5163 150.937 52.2738C150.456 52.0407 150.031 51.7055 149.693 51.2914C149.625 51.2179 149.568 51.135 149.523 51.0454C149.457 50.9277 149.401 50.8048 149.356 50.6781C149.297 50.5412 149.245 50.4017 149.2 50.2599C149.153 50.1259 149.112 49.9896 149.078 49.8515C149.022 49.6285 148.93 49.4159 148.806 49.2217C148.676 49.0111 148.502 48.8306 148.296 48.692C148.053 48.5095 147.769 48.3871 147.47 48.3345C147.093 48.2732 146.713 48.2452 146.331 48.2508C145.561 48.2508 144.967 48.4296 144.539 48.792C144.332 48.947 144.165 49.1494 144.052 49.3823C143.939 49.6152 143.884 49.8717 143.891 50.1303C143.893 50.3773 143.959 50.6194 144.085 50.8321C144.211 51.0447 144.391 51.2202 144.606 51.3406C144.728 51.4308 144.867 51.5145 145.028 51.5866C145.195 51.6653 145.382 51.7441 145.598 51.8162C145.805 51.8818 146.031 51.9491 146.281 52.0163C146.532 52.0786 146.802 52.1393 147.091 52.1951C148.003 52.3673 148.872 52.592 149.693 52.8642C150.094 52.9987 150.464 53.1496 150.797 53.3218C151.135 53.5005 151.447 53.6908 151.742 53.8958C152.035 54.1024 152.291 54.3369 152.513 54.5944C152.734 54.8453 152.929 55.1241 153.09 55.4193ZM163.032 59.4423C163.076 59.4538 163.197 59.4636 163.397 59.4817C163.598 59.4981 163.807 59.5095 164.03 59.5145L164.652 59.5308C164.841 59.5374 164.957 59.5374 165.001 59.5259V60.4066C165.001 60.7871 164.923 61.1381 164.773 61.4611C164.623 61.7751 164.418 62.0603 164.17 62.3041C163.918 62.5439 163.619 62.7298 163.292 62.8502C162.956 62.9754 162.595 63.0231 162.238 62.9896C161.667 62.9457 161.099 62.8751 160.536 62.7781C160.254 62.727 159.985 62.6187 159.747 62.4599C159.518 62.3007 159.3 62.1276 159.092 61.9417C158.684 61.5307 158.372 61.0329 158.182 60.4853C158.059 60.1678 157.975 59.8362 157.933 59.498C157.882 59.106 157.858 58.7109 157.861 58.3156V48.0508H155.535V46.9733C155.539 46.4342 155.757 45.9186 156.14 45.5399C156.529 45.1552 157.053 44.939 157.6 44.938H157.861V39.5145H158.799C159.243 39.5136 159.683 39.6028 160.091 39.7769C160.496 39.9507 160.846 40.1853 161.151 40.4854C161.451 40.7871 161.689 41.1381 161.861 41.5399C162.033 41.9417 162.121 42.3714 162.121 42.829V44.938H164.818V45.9975C164.818 46.2667 164.766 46.5335 164.663 46.7825C164.561 47.0315 164.41 47.2578 164.22 47.4485C164.03 47.6392 163.804 47.7906 163.555 47.8939C163.307 47.9972 163.04 48.0505 162.771 48.0508H162.121V57.858C162.121 58.1811 162.154 58.4599 162.222 58.6895C162.261 58.7896 162.305 58.8781 162.349 58.9683C162.391 59.0515 162.452 59.1239 162.527 59.1799C162.662 59.3192 162.84 59.4112 163.032 59.4423Z" fill="#A6A6A6"/>
<path d="M369.808 46.5532H362.492C362.243 43.6656 360.442 41.8798 357.752 41.8798C354.343 41.8798 352.294 44.8701 352.294 49.6879C352.294 54.5058 354.343 57.4922 357.752 57.4922C360.458 57.4922 362.259 55.5165 362.461 52.3361H369.823C369.271 58.5522 364.665 62.6976 357.8 62.6976C350.038 62.6976 344.978 57.5872 344.978 49.6879C344.978 41.7886 350.022 36.6782 357.784 36.6782C364.649 36.6782 369.239 40.8198 369.808 46.5532ZM379.078 40.6488C380.911 38.1182 383.424 36.872 386.137 36.872C391.845 36.872 395.502 40.2422 395.502 46.8914V61.9263H388.491V47.5678C388.491 43.8556 386.785 42.1724 384.032 42.1724C381.129 42.1724 379.023 44.3381 379.023 48.8178V61.9263H372.004V27.6201H379.015L378.972 40.6488H379.078ZM415.335 54.4981H422.5C421.497 58.9779 417.089 62.6899 410.327 62.6899C402.312 62.6899 397.655 57.2908 397.655 49.4865C397.655 42.2673 402.312 36.6706 410.295 36.6706C416.153 36.6706 420.462 39.8508 422.062 44.8131C422.615 46.5001 422.852 48.3771 422.852 51.0786H404.567C404.769 56.1357 407.333 57.9177 410.327 57.9177C413.131 57.9177 414.983 56.4815 415.335 54.4981ZM404.718 46.8344H415.848C415.398 43.126 413.084 41.4391 410.291 41.4391C407.499 41.4391 405.267 43.1337 404.718 46.842V46.8344ZM446.216 44.9574H439.501C439.501 42.4535 437.996 41.3935 435.492 41.3935C433.24 41.3935 432.036 42.2598 432.036 43.6732C432.036 45.4058 433.639 45.839 437.494 46.804C442.053 47.9439 447.061 49.0837 447.061 55.0415C447.061 59.6198 442.756 62.7052 435.843 62.7052C428.781 62.7052 424.424 59.9087 424.424 53.9662H431.534C431.534 56.4244 433.086 57.8227 435.994 57.8227C438.446 57.8227 439.699 56.907 439.699 55.4593C439.699 53.3392 437.795 52.906 433.841 51.8953C429.582 50.8354 425.024 49.8739 425.024 44.1861C425.024 39.8014 429.231 36.6706 435.543 36.6706C442.207 36.6782 446.216 39.5203 446.216 44.9651V44.9574ZM463.501 56.6183V61.7742C462.293 62.0912 461.045 62.2523 459.792 62.253C453.934 62.253 451.379 59.9733 451.379 54.3044V42.4612H447.271V37.4495H451.398V31.0891H458.39V37.4495H463.248V42.4612H458.39V53.0998C458.39 55.7975 459.295 56.8577 461.696 56.8577C462.306 56.8651 462.914 56.7871 463.501 56.6257V56.6183ZM482.485 37.3431V43.1754C481.76 43.0288 481.022 42.9474 480.28 42.9323C475.971 42.9323 473.669 45.535 473.669 50.3527V61.9186H466.657V37.4495H473.123V40.9185H473.226C474.928 38.2588 477.176 37.0619 480.186 37.0619C480.962 37.0651 481.734 37.1621 482.485 37.3507V37.3431ZM506.027 46.3557V55.2199C506.027 58.3054 506.276 60.2811 506.726 61.9186H500.406C500.157 60.8425 500.04 59.742 500.058 58.6397H499.983C498.083 61.2423 495.243 62.4962 491.72 62.4962C486.308 62.4962 483.054 59.3158 483.054 55.0757C483.054 51.0786 485.558 48.377 492.929 47.2713C494.832 46.9826 497.668 46.6939 499.292 46.5951V45.7287C499.292 42.6435 497.59 41.3935 495.133 41.3935C492.529 41.3935 491.029 42.7879 490.926 45.1019H484.084C484.337 40.4284 487.841 36.6706 495.105 36.6706C502.369 36.6706 506.027 39.9534 506.027 46.3633V46.3557ZM499.264 50.6986C497.759 50.7935 495.658 50.9872 494.153 51.2266C491.25 51.7093 490.049 52.625 490.049 54.6007C490.049 56.432 491.348 57.6859 493.805 57.6859C495.255 57.6859 496.808 57.2528 497.81 56.2878C498.996 55.1479 499.264 53.8294 499.264 51.6143V50.6986ZM523.131 56.6257V61.7818C521.921 62.0986 520.676 62.2595 519.426 62.2606C513.563 62.2606 511.008 59.9809 511.008 54.3118V42.4612H506.904V37.4495H511.008V31.0891H518.023V37.4495H522.892V42.4612H518.034V53.0998C518.034 55.7975 518.935 56.8577 521.341 56.8577C521.946 56.864 522.548 56.7859 523.131 56.6257ZM542.249 54.4981H549.409C548.409 58.9779 544.001 62.6899 537.239 62.6899C529.226 62.6899 524.564 57.2908 524.564 49.4865C524.564 42.2673 529.226 36.6706 537.203 36.6706C543.066 36.6706 547.371 39.8508 548.974 44.8131C549.528 46.5001 549.765 48.3771 549.765 51.0786H531.469C531.669 56.1357 534.233 57.9177 537.23 57.9177C540.037 57.9177 541.888 56.4815 542.249 54.4981ZM531.627 46.8344H542.749C542.298 43.126 539.985 41.4391 537.188 41.4391C534.391 41.4391 532.172 43.1337 531.618 46.842L531.627 46.8344ZM342.952 37.0619C339.946 37.0619 337.694 38.2664 335.992 40.9185H335.889V37.4495H329.427V43.6922C328.588 44.186 327.71 44.6154 326.8 44.9764C327.59 38.0308 326.31 32.1947 320.698 29.1247C311.451 24.0637 299.743 28.285 295.023 39.2239C291.326 47.7995 291.788 60.5356 304.195 62.671C314.35 64.415 321.495 58.936 324.095 53.0809C325.928 52.654 327.713 52.0533 329.423 51.2874V61.9263H336.454V50.3604C336.435 49.2532 336.587 48.1495 336.904 47.0852C337.007 46.7457 337.139 46.4152 337.299 46.0973C338.326 44.0266 340.274 42.9399 343.054 42.9399C343.794 42.9547 344.531 43.0361 345.255 43.1831V37.3507C344.503 37.1612 343.729 37.0642 342.952 37.0619ZM307.876 56.7018C303.116 56.7247 300.513 53.4721 300.513 48.2707C300.566 46.4276 300.866 44.5988 301.406 42.8297C302.354 45.4324 304.827 49.023 308.026 51.0406C310.199 52.4083 312.648 53.4076 315.037 53.6281C313.272 55.3113 311.048 56.6905 307.876 56.7018ZM318.794 47.0814C318.173 47.1287 317.549 47.1211 316.929 47.0586C310.349 46.5419 307.655 41.6405 307.592 38.3196C307.544 35.7017 309.373 33.3802 312.15 33.3802H312.181C316.941 33.3802 319.627 36.4655 319.596 41.7658C319.609 43.5665 319.338 45.3585 318.794 47.0814Z" fill="#A6A6A6"/>
<path fill-rule="evenodd" clip-rule="evenodd" d="M0 141.594C0 150.775 5.69192 159.585 13.1657 163.396C15.4919 164.559 18.9566 165.995 22.347 165.995V147.607C21.3571 147.855 20.2187 149.389 19.501 150.132C17.9419 151.691 17.6944 152.557 15.7146 152.557C14.5268 152.557 13.6606 151.542 13.6606 150.082C13.6606 148.201 17.6202 145.578 18.6101 144.069C14.0813 144.069 10.1465 145.108 10.1465 141.396C10.1465 140.678 10.5424 140.035 10.9631 139.738C11.9035 139.045 16.952 139.317 18.6101 139.317C18.4121 138.55 16.6303 137.016 15.9869 136.372C15.1949 135.605 13.6606 134.467 13.6606 133.105C13.6606 131.373 14.601 130.631 16.1354 130.631C17.546 130.631 19.4268 133.006 20.7384 134.293C21.2581 134.838 21.5798 135.382 22.347 135.605C22.347 132.709 21.5303 129.393 24.8217 129.393C25.9848 129.393 26.8015 130.284 27.0242 131.324C27.247 132.313 27.0985 134.491 27.0985 135.605C29.0783 134.269 30.8354 130.631 33.5081 130.631C35.1414 130.631 35.5869 131.967 35.5869 133.328C35.5869 134.491 33.9535 135.679 33.2606 136.372L31.8995 137.708C31.3798 138.228 30.8106 138.55 30.6126 139.317C31.949 139.317 37.4182 138.995 38.3338 139.688C39.9424 140.901 39.6702 144.019 36.4035 144.093C34.498 144.118 32.5429 144.069 30.6126 144.069C32.6172 147.063 35.5869 147.484 35.5869 150.701C35.5869 152.507 33.9535 152.557 32.8894 152.557C31.2808 152.557 29.0288 148.894 27.0985 147.607V165.995C30.4641 165.995 33.5823 164.609 35.9333 163.446C43.4813 159.709 49.2227 151.072 49.2227 142.633C49.2227 136.199 47.5399 130.086 43.2833 125.607C41.551 123.8 41.0066 123.033 38.5071 121.301C22.446 110.14 0 122.043 0 141.594ZM173.554 146.766V140.158C173.554 137.263 181.003 137.263 181.003 140.158V146.766C181.003 147.558 180.657 147.904 180.162 148.226C178.504 149.29 173.554 149.315 173.554 146.766ZM181.003 135.184C179.048 135.036 179.815 134.763 176.449 134.763C173.604 134.763 170.04 136.372 170.04 139.119V147.805C170.04 149.463 171.104 150.33 172.193 151.023C174.321 152.433 178.157 152.408 180.607 151.74C182.389 151.245 180.013 152.136 183.478 152.136C183.948 152.136 184.517 151.592 184.517 151.122V127.933C184.517 126.671 181.572 126.3 181.077 128.032C180.879 128.75 181.003 129.666 181.003 130.433V135.184ZM110.671 146.766V140.158C110.671 139.342 110.992 138.995 111.487 138.698C112.923 137.783 115.868 137.783 117.278 138.698C117.773 138.995 118.12 139.342 118.12 140.158V146.766C118.12 149.315 113.145 149.29 111.487 148.226C110.992 147.904 110.671 147.558 110.671 146.766ZM118.12 135.184C116.189 135.036 116.932 134.763 113.566 134.763C110.72 134.763 107.157 136.372 107.157 139.119V147.805C107.157 149.463 108.221 150.33 109.31 151.023C111.438 152.433 115.274 152.408 117.724 151.74C119.506 151.245 117.13 152.136 120.594 152.136C121.065 152.136 121.634 151.592 121.634 151.122V127.933C121.634 126.671 118.689 126.3 118.194 128.032C117.996 128.75 118.12 129.666 118.12 130.433V135.184ZM127.623 146.766V140.158C127.623 139.342 127.944 138.995 128.439 138.698C129.875 137.783 132.82 137.783 134.255 138.698C134.75 138.995 135.072 139.342 135.072 140.158V146.766C135.072 149.315 130.122 149.29 128.439 148.226C127.944 147.904 127.623 147.558 127.623 146.766ZM124.109 127.933V151.122C124.109 152.359 125.767 152.136 126.385 152.136C126.88 152.136 127.004 151.815 127.425 151.518C129.726 152.631 134.23 152.285 136.284 151.072C137.101 150.602 138.586 149.216 138.586 148.003V139.119C138.586 136.397 134.997 134.763 132.176 134.763C128.811 134.763 129.553 135.036 127.623 135.184V130.433C127.623 127.265 127.672 126.919 125.148 126.919C124.653 126.919 124.109 127.463 124.109 127.933ZM93.6939 140.158C93.6939 137.263 101.143 137.263 101.143 140.158V140.975H93.6939V140.158ZM90.1798 139.119V147.805C90.1798 153.918 104.657 153.225 104.657 148.003C104.657 145.454 104.806 145.331 102.38 145.331C100.747 145.331 101.762 148.845 98.6682 148.845C93.4465 148.845 93.6939 148.35 93.6939 144.069H103.642C105.127 144.069 104.657 141.223 104.657 139.119C104.657 136.397 101.069 134.763 98.2475 134.763H96.5894C93.7434 134.763 90.1798 136.372 90.1798 139.119ZM76.7419 140.158C76.7419 137.609 81.6914 137.634 83.3742 138.698C84.3146 139.292 84.1909 139.861 84.1909 140.975H76.7419V140.158ZM73.2278 139.119V147.805C73.2278 153.918 87.705 153.225 87.705 148.003C87.705 145.454 87.8535 145.331 85.4283 145.331C83.7949 145.331 84.8096 148.845 81.7162 148.845C76.4697 148.845 76.7419 148.35 76.7419 144.069H86.6657C88.1752 144.069 87.705 141.223 87.705 139.119C87.705 136.397 84.1167 134.763 81.2955 134.763H79.6374C76.7914 134.763 73.2278 136.372 73.2278 139.119ZM190.506 140.158C190.506 137.263 197.955 137.263 197.955 140.158V140.975H190.506V140.158ZM186.992 139.119V147.805C186.992 149.463 188.081 150.33 189.145 151.023C192.634 153.324 201.469 152.062 201.469 148.003C201.469 145.454 201.618 145.331 199.192 145.331C198.079 145.331 198.104 146.717 197.807 147.459C197.039 149.414 190.506 149.612 190.506 146.766V144.069H200.43C201.939 144.069 201.469 141.223 201.469 139.119C201.469 136.397 197.881 134.763 195.06 134.763H193.402C190.556 134.763 186.992 136.372 186.992 139.119ZM213.67 138.698V140.158C213.67 146.816 224.633 143.772 224.633 146.766C224.633 149.241 221.861 149.043 219.881 149.043C215.551 149.043 218.644 144.91 215.328 144.91C213.323 144.91 213.67 146.519 213.67 148.226C213.67 150.453 217.159 152.359 220.079 152.359C222.455 152.359 224.014 152.483 226.142 151.146C228.147 149.909 228.147 148.498 228.147 146.568C228.147 140.554 217.184 143.178 217.184 140.356C217.184 137.585 219.461 137.882 222.158 137.882C222.95 137.882 224.262 138.599 224.509 139.243C225.029 140.604 224.286 141.594 226.712 141.594C228.444 141.594 228.147 140.307 228.147 139.119C228.147 136.446 224.88 134.566 222.158 134.566C219.956 134.566 217.704 134.442 215.823 135.679C214.957 136.248 213.67 137.411 213.67 138.698ZM56.053 138.698V140.158C56.053 146.816 67.0162 143.772 67.0162 146.766C67.0162 149.241 64.2444 149.043 62.2646 149.043C57.9338 149.043 61.0273 144.91 57.7111 144.91C55.7066 144.91 56.053 146.519 56.053 148.226C56.053 150.453 59.5424 152.359 62.4626 152.359C64.8384 152.359 66.3975 152.483 68.5258 151.146C70.5303 149.909 70.5303 148.498 70.5303 146.568C70.5303 140.554 59.5672 143.178 59.5672 140.356C59.5672 137.585 61.8439 137.882 64.5414 137.882C67.0904 137.882 67.0657 140.455 67.2141 140.777C67.8823 142.163 70.5303 141.693 70.5303 140.554V139.119C70.5303 136.446 67.2636 134.566 64.5414 134.566C62.3389 134.566 60.0869 134.442 58.2061 135.679C57.3399 136.248 56.053 137.411 56.053 138.698ZM141.283 135.803V147.805C141.283 150.552 144.847 152.136 147.693 152.136H149.351C152.172 152.136 155.761 150.528 155.761 147.805V135.803C155.761 134.541 152.964 134.194 152.37 135.729C152.147 136.298 152.246 137.164 152.246 137.882V146.766C152.024 149.439 147.297 149.191 145.738 148.3C144.204 147.409 144.797 145.405 144.797 142.435L144.723 135.877C144.228 134.145 141.283 134.516 141.283 135.803ZM164.026 127.933V151.122C164.026 152.507 167.54 152.829 167.54 150.503V128.577C167.54 126.226 164.026 126.547 164.026 127.933ZM203.944 135.803V151.122C203.944 152.408 207.161 152.879 207.458 150.676V142.212C207.458 139.738 207.211 138.995 209.116 138.278C210.799 137.634 212.853 138.723 212.853 136.224C212.853 133.922 209.314 134.763 208.003 135.135C205.751 135.753 208.423 134.763 204.983 134.763C204.513 134.763 203.944 135.333 203.944 135.803ZM158.235 135.803V151.122C158.235 152.507 161.749 152.829 161.749 150.503V136.422C161.749 134.095 158.235 134.417 158.235 135.803ZM158.235 127.933C158.235 130.705 158.062 130.829 160.512 130.829C162.17 130.829 162.17 126.919 160.512 126.919C159.893 126.919 158.235 126.696 158.235 127.933Z" fill="#A6A6A6"/>
<path fill-rule="evenodd" clip-rule="evenodd" d="M304.161 155.169C301.929 155.169 299.785 154.7 297.73 153.761C295.675 152.822 294.098 151.573 293 150.014L297.943 145.815C298.687 146.559 299.643 147.25 300.813 147.888C301.982 148.526 303.169 148.845 304.373 148.845C306.889 148.845 308.147 148.136 308.147 146.719C308.147 146.081 307.819 145.558 307.164 145.151C306.508 144.743 305.294 144.203 303.523 143.53C300.157 142.396 297.712 141.183 296.189 139.889C294.665 138.596 293.903 136.78 293.903 134.442C293.903 132.068 294.869 130.19 296.8 128.808C298.731 127.427 301.131 126.736 304.001 126.736C308.111 126.736 311.513 128.242 314.206 131.253L309.21 135.345C307.544 133.822 305.808 133.06 304.001 133.06C301.876 133.06 300.813 133.645 300.813 134.814C300.813 135.912 302.584 136.904 306.127 137.79C307.403 138.215 308.457 138.614 309.29 138.986C310.122 139.358 311.035 139.889 312.027 140.58C313.019 141.271 313.772 142.13 314.285 143.158C314.799 144.186 315.056 145.372 315.056 146.719C315.056 149.376 314.073 151.449 312.106 152.937C310.14 154.425 307.491 155.169 304.161 155.169ZM322.975 124.769C321.77 124.769 320.725 124.335 319.839 123.467C318.953 122.599 318.51 121.563 318.51 120.358C318.51 119.153 318.944 118.126 319.813 117.276C320.681 116.425 321.735 116 322.975 116C324.215 116 325.26 116.416 326.11 117.249C326.961 118.082 327.386 119.118 327.386 120.358C327.386 121.563 326.961 122.599 326.11 123.467C325.26 124.335 324.215 124.769 322.975 124.769ZM319.095 154.531V127.373H326.801V154.531H319.095ZM332.169 154.531V127.373H339.875V129.818C340.23 129.109 340.868 128.419 341.789 127.745C342.71 127.072 343.791 126.736 345.031 126.736C347.157 126.736 348.946 127.498 350.399 129.021L349.389 136.036C347.901 134.796 346.288 134.176 344.552 134.176C341.435 134.176 339.875 136.054 339.875 139.81V154.531H332.169ZM356.085 124.769C354.88 124.769 353.836 124.335 352.95 123.467C352.064 122.599 351.621 121.563 351.621 120.358C351.621 119.153 352.055 118.126 352.923 117.276C353.791 116.425 354.845 116 356.085 116C357.325 116 358.371 116.416 359.221 117.249C360.071 118.082 360.496 119.118 360.496 120.358C360.496 121.563 360.071 122.599 359.221 123.467C358.371 124.335 357.325 124.769 356.085 124.769ZM352.206 154.531V127.373H359.912V154.531H352.206ZM381.808 154.531V152.034C380.108 154.124 377.628 155.169 374.368 155.169C373.27 155.169 372.207 155.001 371.179 154.664C370.151 154.328 369.159 153.787 368.203 153.043C367.246 152.299 366.475 151.236 365.891 149.855C365.306 148.473 365.014 146.861 365.014 145.018V127.373H372.72V141.51C372.72 143.672 373.039 145.249 373.677 146.241C374.315 147.233 375.449 147.729 377.078 147.729C378.708 147.729 379.904 147.233 380.666 146.241C381.428 145.249 381.808 143.707 381.808 141.617V127.373H389.515V154.531H381.808ZM404.13 155.169C401.898 155.169 399.754 154.7 397.699 153.761C395.644 152.822 394.067 151.573 392.969 150.014L397.912 145.815C398.656 146.559 399.613 147.25 400.782 147.888C401.951 148.526 403.138 148.845 404.343 148.845C406.858 148.845 408.116 148.136 408.116 146.719C408.116 146.081 407.788 145.558 407.133 145.151C406.477 144.743 405.264 144.203 403.492 143.53C400.126 142.396 397.681 141.183 396.158 139.889C394.635 138.596 393.873 136.78 393.873 134.442C393.873 132.068 394.838 130.19 396.769 128.808C398.7 127.427 401.101 126.736 403.971 126.736C408.08 126.736 411.482 128.242 414.175 131.253L409.179 135.345C407.514 133.822 405.778 133.06 403.971 133.06C401.845 133.06 400.782 133.645 400.782 134.814C400.782 135.912 402.553 136.904 406.096 137.79C407.372 138.215 408.426 138.614 409.259 138.986C410.091 139.358 411.004 139.889 411.996 140.58C412.988 141.271 413.741 142.13 414.254 143.158C414.768 144.186 415.025 145.372 415.025 146.719C415.025 149.376 414.042 151.449 412.075 152.937C410.109 154.425 407.46 155.169 404.13 155.169ZM419.277 154.531V119.773L426.983 116.159V154.531H419.277ZM447.923 154.531V152.512C446.293 154.284 444.043 155.169 441.173 155.169C438.162 155.169 435.708 154.399 433.813 152.857C431.917 151.316 430.969 149.11 430.969 146.241C430.969 143.441 432.067 141.289 434.264 139.783C436.461 138.277 439.03 137.524 441.971 137.524C444.522 137.524 446.506 137.843 447.923 138.481V136.993C447.923 135.753 447.533 134.805 446.754 134.15C445.974 133.494 444.894 133.166 443.512 133.166C440.571 133.166 437.666 134.123 434.796 136.036L432.404 130.137C435.735 127.869 439.614 126.736 444.043 126.736C451.732 126.736 455.576 130.279 455.576 137.365V154.531H447.923ZM442.661 148.685C444.575 148.685 446.329 148.048 447.923 146.772V144.327C446.506 143.902 444.965 143.689 443.299 143.689C440.11 143.689 438.516 144.558 438.516 146.294C438.516 147.888 439.898 148.685 442.661 148.685ZM473.061 155.169C470.794 155.169 469.129 154.266 468.066 152.459V154.531H460.359V119.614L468.066 116.159V129.34C469.306 127.604 471.113 126.736 473.487 126.736C476.746 126.736 479.439 128.029 481.565 130.615C483.691 133.202 484.754 136.639 484.754 140.926C484.754 145.461 483.709 148.969 481.618 151.449C479.528 153.929 476.675 155.169 473.061 155.169ZM472.211 147.729C473.77 147.729 474.966 147.126 475.799 145.922C476.631 144.717 477.047 143.052 477.047 140.926C477.047 138.765 476.631 137.099 475.799 135.93C474.966 134.761 473.77 134.176 472.211 134.176C470.404 134.176 469.022 134.761 468.066 135.93V146.028C468.951 147.162 470.333 147.729 472.211 147.729ZM497.615 155.169C495.383 155.169 493.24 154.7 491.185 153.761C489.13 152.822 487.553 151.573 486.454 150.014L491.397 145.815C492.141 146.559 493.098 147.25 494.267 147.888C495.436 148.526 496.623 148.845 497.828 148.845C500.343 148.845 501.601 148.136 501.601 146.719C501.601 146.081 501.274 145.558 500.618 145.151C499.963 144.743 498.749 144.203 496.978 143.53C493.611 142.396 491.167 141.183 489.643 139.889C488.12 138.596 487.358 136.78 487.358 134.442C487.358 132.068 488.323 130.19 490.254 128.808C492.186 127.427 494.586 126.736 497.456 126.736C501.566 126.736 504.967 128.242 507.66 131.253L502.664 135.345C500.999 133.822 499.263 133.06 497.456 133.06C495.33 133.06 494.267 133.645 494.267 134.814C494.267 135.912 496.039 136.904 499.582 137.79C500.857 138.215 501.911 138.614 502.744 138.986C503.577 139.358 504.489 139.889 505.481 140.58C506.473 141.271 507.226 142.13 507.74 143.158C508.253 144.186 508.51 145.372 508.51 146.719C508.51 149.376 507.527 151.449 505.561 152.937C503.594 154.425 500.946 155.169 497.615 155.169ZM518.555 153.841C517.634 154.726 516.5 155.169 515.154 155.169C513.807 155.169 512.682 154.726 511.779 153.841C510.875 152.955 510.424 151.857 510.424 150.545C510.424 149.235 510.875 148.118 511.779 147.197C512.682 146.276 513.807 145.815 515.154 145.815C516.5 145.815 517.643 146.276 518.582 147.197C519.521 148.118 519.99 149.235 519.99 150.545C519.99 151.856 519.512 152.955 518.555 153.841Z" fill="#A6A6A6"/>
<path d="M301 236.648C301.002 236.287 301.147 235.941 301.404 235.686C301.66 235.432 302.006 235.289 302.368 235.289H306.47C306.833 235.289 307.181 235.433 307.437 235.689C307.694 235.946 307.838 236.294 307.838 236.656V261.262C307.838 261.624 307.982 261.972 308.238 262.229C308.495 262.485 308.843 262.629 309.206 262.629H326.987C327.35 262.629 327.698 262.485 327.954 262.229C328.21 261.972 328.355 261.624 328.355 261.262V257.164C328.355 256.802 328.21 256.454 327.954 256.197C327.698 255.941 327.35 255.797 326.987 255.797H318.781C317.693 255.797 316.65 255.365 315.88 254.595C315.111 253.826 314.679 252.782 314.679 251.694V239.392C314.679 238.303 315.111 237.26 315.88 236.49C316.65 235.721 317.693 235.289 318.781 235.289H331.084C332.172 235.289 333.216 235.721 333.985 236.49C334.755 237.26 335.187 238.303 335.187 239.392V265.379C335.187 266.467 334.755 267.51 333.985 268.28C333.216 269.049 332.172 269.481 331.084 269.481H305.103C304.015 269.481 302.971 269.049 302.202 268.28C301.432 267.51 301 266.467 301 265.379V236.648ZM328.355 243.486C328.355 243.123 328.21 242.775 327.954 242.519C327.698 242.262 327.35 242.118 326.987 242.118H321.517V247.591C321.517 247.954 321.661 248.302 321.917 248.558C322.174 248.815 322.522 248.959 322.884 248.959H328.355V243.486Z" fill="#A6A6A6"/>
<path d="M350 233V271.023H356.58V233H350ZM388.979 259.986C390.012 248.942 384.401 243.391 375.435 243.391C366.731 243.391 361.184 249.265 361.184 257.425C361.184 266.008 366.677 271.73 375.924 271.73C380.004 271.73 384.627 270.317 387.457 267.378L383.214 263.19C381.692 264.766 378.482 265.693 376.033 265.693C371.355 265.693 368.471 263.299 368.036 259.971L388.979 259.986ZM368.145 254.492C369.123 251.01 372.062 249.271 375.652 249.271C379.46 249.271 382.178 251.01 382.616 254.492H368.145ZM420.474 271.026V256.938C420.474 248.507 415.415 243.778 409.104 243.778C405.731 243.778 403.013 245.137 400.292 247.803L399.86 244.158H393.929V271.029H400.509V257.319C400.509 253.239 403.284 249.812 407.376 249.812C411.619 249.812 413.85 252.913 413.85 256.993V271.026H420.474ZM439.176 249.757C443.365 249.757 446.956 252.904 446.956 257.591C446.956 262.432 443.365 265.479 439.176 265.479C434.933 265.479 431.56 262.269 431.56 257.591C431.563 252.741 434.936 249.757 439.176 249.757ZM447.393 233V247.852C445.817 245.077 441.411 243.56 438.581 243.56C430.748 243.56 424.928 248.347 424.928 257.594C424.928 266.406 430.856 271.627 438.744 271.627C442.009 271.627 445.325 270.54 447.393 267.336L447.828 271.035H454.031V233H447.393ZM481.019 246.985C477.918 244.264 474.765 243.449 470.574 243.449C465.678 243.449 459.258 245.626 459.258 251.826C459.258 257.917 465.298 259.768 470.356 260.149C474.164 260.366 475.686 261.127 475.686 262.978C475.686 264.935 473.346 266.243 470.845 266.188C467.853 266.134 463.501 264.557 461.598 262.435L458.345 267.164C462.262 271.244 466.505 271.95 470.748 271.95C478.419 271.95 482.281 267.871 482.281 263.138C482.281 256.012 475.861 254.87 470.802 254.555C467.369 254.338 465.798 253.359 465.798 251.617C465.798 249.932 467.538 248.95 470.694 248.95C473.252 248.95 475.426 249.548 477.329 251.345L481.019 246.985ZM499.47 265.261C494.956 265.261 491.854 261.828 491.854 257.645C491.854 253.462 494.684 250.029 499.47 250.029C504.257 250.029 507.086 253.462 507.086 257.645C507.086 261.828 503.985 265.261 499.47 265.261ZM514.322 282.233V244.21H508.128L507.693 247.909C505.627 244.916 502.037 243.617 498.99 243.617C490.721 243.617 485.228 249.763 485.228 257.651C485.228 265.484 490.178 271.684 498.772 271.684C501.602 271.684 505.79 270.826 507.693 267.876V282.236L514.322 282.233ZM520.144 244.21V271.026H526.782V256.884C526.782 251.934 529.992 250.083 533.474 250.083C535.651 250.083 536.907 250.681 538.261 251.823L541.253 246.058C539.785 244.59 537.119 243.5 534.344 243.5C531.623 243.5 528.851 243.989 526.782 247.308L526.293 244.207L520.144 244.21Z" fill="#A6A6A6"/>
</svg>
