<svg width="64" height="64" viewBox="0 0 64 64" fill="none" xmlns="http://www.w3.org/2000/svg">
<path d="M40.826 29.168L24.832 13.174C24.4602 12.8019 24.0187 12.5068 23.5327 12.3055C23.0468 12.1041 22.526 12.0005 22 12.0005C21.474 12.0005 20.9532 12.1041 20.4672 12.3055C19.9813 12.5068 19.5398 12.8019 19.168 13.174L3.17399 29.168C2.80196 29.5398 2.50684 29.9813 2.30549 30.4672C2.10414 30.9532 2.0005 31.474 2.0005 32C2.0005 32.526 2.10414 33.0468 2.30549 33.5327C2.50684 34.0187 2.80196 34.4601 3.17399 34.832L9.75599 41.416L5.99999 45.17L8.82799 48L12.586 44.244L19.168 50.826C19.5398 51.198 19.9813 51.4931 20.4672 51.6945C20.9532 51.8958 21.474 51.9995 22 51.9995C22.526 51.9995 23.0468 51.8958 23.5327 51.6945C24.0187 51.4931 24.4602 51.198 24.832 50.826L29.344 46.314L26.512 43.484L21.996 47.998L6.00199 32.004L21.996 16.002L37.998 32.004L35 35L37.83 37.83L40.826 34.832C41.198 34.4601 41.4931 34.0187 41.6945 33.5327C41.8958 33.0468 41.9995 32.526 41.9995 32C41.9995 31.474 41.8958 30.9532 41.6945 30.4672C41.4931 29.9813 41.198 29.5398 40.826 29.168Z" fill="#CCCCCC" fill-opacity="0.52"/>
<path d="M60.826 29.168L54.244 22.584L58 18.83L55.172 16L51.416 19.756L44.832 13.174C44.4602 12.8019 44.0187 12.5068 43.5328 12.3055C43.0468 12.1041 42.526 12.0005 42 12.0005C41.474 12.0005 40.9532 12.1041 40.4673 12.3055C39.9813 12.5068 39.5398 12.8019 39.168 13.174L34.656 17.686L37.486 20.514L41.996 16.002L57.998 32.004L41.996 47.998L26.002 32.004L29.002 29.002L26.17 26.17L23.174 29.168C22.802 29.5398 22.5069 29.9813 22.3055 30.4672C22.1042 30.9532 22.0005 31.474 22.0005 32C22.0005 32.526 22.1042 33.0468 22.3055 33.5327C22.5069 34.0187 22.802 34.4601 23.174 34.832L39.168 50.826C39.5398 51.198 39.9813 51.4931 40.4673 51.6945C40.9532 51.8958 41.474 51.9995 42 51.9995C42.526 51.9995 43.0468 51.8958 43.5328 51.6945C44.0187 51.4931 44.4602 51.198 44.832 50.826L60.826 34.832C61.198 34.4601 61.4932 34.0187 61.6945 33.5327C61.8959 33.0468 61.9995 32.526 61.9995 32C61.9995 31.474 61.8959 30.9532 61.6945 30.4672C61.4932 29.9813 61.198 29.5398 60.826 29.168Z" fill="#CCCCCC" fill-opacity="0.52"/>
</svg>
