<svg width="25" height="25" viewBox="0 0 25 25" fill="none" xmlns="http://www.w3.org/2000/svg">
<path d="M11.2689 16.964C10.8481 17.2403 10.4167 17.2616 9.97475 17.0277C9.53283 16.7939 9.31187 16.4219 9.31187 15.9118V9.08833C9.31187 8.57817 9.53283 8.20618 9.97475 7.97235C10.4167 7.73853 10.8481 7.75979 11.2689 8.03612L16.5088 11.4159C16.6982 11.5435 16.8401 11.7029 16.9343 11.8942C17.0295 12.0855 17.077 12.2875 17.077 12.5C17.077 12.7126 17.0295 12.9145 16.9343 13.1059C16.8401 13.2972 16.6982 13.4566 16.5088 13.5841L11.2689 16.964ZM9.75379 24.9671C9.01726 24.7971 8.30724 24.5739 7.62374 24.2975C6.93939 24.0212 6.27104 23.6705 5.61869 23.2453C5.28199 23.0328 5.09806 22.7352 5.06692 22.3526C5.03493 21.9699 5.16625 21.6298 5.46086 21.3322C5.6713 21.1197 5.93939 20.9976 6.26515 20.9662C6.59175 20.9339 6.89184 21.0027 7.1654 21.1728C7.62837 21.4704 8.10732 21.7199 8.60227 21.9215C9.09638 22.1238 9.60648 22.2888 10.1326 22.4163C10.4272 22.5013 10.6747 22.6663 10.875 22.9112C11.0745 23.1552 11.1742 23.426 11.1742 23.7236C11.1742 24.1487 11.0324 24.4833 10.7487 24.7274C10.4642 24.9722 10.1326 25.0522 9.75379 24.9671ZM3.66162 19.5148C3.367 19.8124 3.03577 19.945 2.66793 19.9127C2.29924 19.8812 2.00968 19.7061 1.79924 19.3872C1.37837 18.7708 1.02609 18.1174 0.742424 17.4269C0.457912 16.7357 0.231482 16.0074 0.0631314 15.2422C-0.0420874 14.8595 0.0260943 14.5194 0.267677 14.2218C0.510101 13.9242 0.841751 13.7754 1.26263 13.7754C1.55724 13.7754 1.83081 13.8817 2.08333 14.0943C2.33586 14.3069 2.50421 14.5619 2.58838 14.8595C2.71465 15.4122 2.883 15.933 3.09343 16.4219C3.30387 16.9108 3.54588 17.3891 3.81944 17.8567C3.98779 18.1118 4.05598 18.3988 4.02399 18.7176C3.99285 19.0365 3.87205 19.3022 3.66162 19.5148ZM1.29419 11.2246C0.873316 11.2246 0.536616 11.0758 0.284091 10.7782C0.0315657 10.4806 -0.0526094 10.1405 0.0315657 9.75792C0.199916 9.01394 0.431397 8.28568 0.72601 7.57315C1.02062 6.86148 1.37837 6.19741 1.79924 5.58097C2.00968 5.26212 2.29924 5.09206 2.66793 5.07081C3.03577 5.04955 3.367 5.18772 3.66162 5.48531C3.87205 5.69788 3.99285 5.96359 4.02399 6.28244C4.05598 6.60129 3.98779 6.88826 3.81944 7.14334C3.54588 7.58973 3.30387 8.06248 3.09343 8.56159C2.883 9.06155 2.71465 9.58787 2.58838 10.1405C2.50421 10.4381 2.34133 10.6932 2.09975 10.9058C1.85732 11.1184 1.5888 11.2246 1.29419 11.2246ZM15.0884 24.9352C14.7096 25.0203 14.3834 24.9459 14.1098 24.712C13.8363 24.4782 13.6995 24.1594 13.6995 23.7555C13.6995 23.4579 13.7997 23.1816 14 22.9265C14.1995 22.6714 14.4465 22.5013 14.7412 22.4163C16.9928 21.8211 18.8447 20.615 20.2967 18.798C21.7487 16.9801 22.4747 14.8808 22.4747 12.5C22.4747 10.1193 21.7487 8.00424 20.2967 6.1549C18.8447 4.30556 16.9928 3.10456 14.7412 2.55188C14.4465 2.46685 14.1995 2.3019 14 2.05702C13.7997 1.813 13.6995 1.54219 13.6995 1.24459C13.6995 0.840713 13.8418 0.516335 14.1263 0.271457C14.4099 0.0274295 14.7412 -0.0520708 15.1199 0.0329562C18.0029 0.670659 20.3704 2.148 22.2222 4.46499C24.0741 6.78198 25 9.46033 25 12.5C25 15.5185 24.069 18.1756 22.2071 20.4713C20.3443 22.7671 17.9714 24.255 15.0884 24.9352ZM7.07071 3.85917C6.79714 4.02923 6.508 4.093 6.20328 4.05048C5.89773 4.00797 5.63973 3.88043 5.42929 3.66786C5.13468 3.37027 5.00337 3.03016 5.03535 2.64754C5.0665 2.26492 5.25042 1.96732 5.58712 1.75475C6.23948 1.32962 6.91288 0.978882 7.60732 0.702544C8.30177 0.426206 9.01726 0.20301 9.75379 0.0329562C10.1326 -0.0520708 10.4642 0.0274295 10.7487 0.271457C11.0324 0.516335 11.1742 0.840713 11.1742 1.24459C11.1742 1.54219 11.069 1.813 10.8586 2.05702C10.6481 2.3019 10.3956 2.46685 10.101 2.55188C9.57492 2.67942 9.05934 2.85458 8.55429 3.07735C8.04924 3.30097 7.55471 3.56158 7.07071 3.85917Z" fill="#0D0029"/>
</svg>
